<?xml version="1.0" encoding="UTF-8"?>
<svg id="Layer_1" xmlns="http://www.w3.org/2000/svg" version="1.1" viewBox="0 0 512 512">
  <!-- Generator: Adobe Illustrator 29.5.1, SVG Export Plug-In . SVG Version: 2.1.0 Build 141)  -->
  <defs>
    <style>
      .st0 {
        fill: #615349;
      }

      .st1 {
        fill: #60aed5;
      }

      .st2 {
        fill: #6e6057;
      }

      .st3 {
        fill: #ddebff;
      }

      .st4 {
        fill: #a1aab3;
      }

      .st5 {
        fill: #8a9199;
      }

      .st6 {
        fill: #6bbae2;
      }

      .st7 {
        fill: #ffc080;
      }

      .st8 {
        fill: #c5dcfd;
      }

      .st9 {
        fill: #ffd9b3;
      }
    </style>
  </defs>
  <rect class="st6" x="411.83" y="100.17" width="100.17" height="345.04"/>
  <rect class="st1" x="461.91" y="100.17" width="50.09" height="345.04"/>
  <path class="st3" d="M361.74,512H16.7c-9.22,0-16.7-7.47-16.7-16.7V16.7C0,7.47,7.48,0,16.7,0h345.04c9.22,0,16.7,7.47,16.7,16.7v478.61c0,9.22-7.48,16.7-16.7,16.7Z"/>
  <path class="st8" d="M361.74,0h-172.52v512h172.52c9.22,0,16.7-7.47,16.7-16.7V16.7c0-9.22-7.48-16.7-16.7-16.7Z"/>
  <path class="st4" d="M228.17,100.17h-77.91c-9.22,0-16.7-7.47-16.7-16.7s7.48-16.7,16.7-16.7h77.91c9.22,0,16.7,7.47,16.7,16.7s-7.48,16.7-16.7,16.7Z"/>
  <path class="st5" d="M294.96,233.74h-77.91c-9.22,0-16.7-7.47-16.7-16.7s7.48-16.7,16.7-16.7h77.91c9.22,0,16.7,7.47,16.7,16.7s-7.48,16.7-16.7,16.7Z"/>
  <g>
    <path class="st4" d="M150.26,233.74h-66.78c-9.22,0-16.7-7.47-16.7-16.7s7.48-16.7,16.7-16.7h66.78c9.22,0,16.7,7.47,16.7,16.7s-7.48,16.7-16.7,16.7Z"/>
    <path class="st4" d="M172.52,367.3h-89.04c-9.22,0-16.7-7.47-16.7-16.7s7.48-16.7,16.7-16.7h89.04c9.22,0,16.7,7.47,16.7,16.7s-7.48,16.7-16.69,16.7Z"/>
  </g>
  <g>
    <path class="st5" d="M294.96,367.3h-55.65c-9.22,0-16.7-7.47-16.7-16.7s7.48-16.7,16.7-16.7h55.65c9.22,0,16.7,7.47,16.7,16.7s-7.48,16.7-16.7,16.7Z"/>
    <path class="st5" d="M228.17,66.78h-38.96v33.39h38.96c9.22,0,16.7-7.47,16.7-16.7s-7.48-16.69-16.7-16.69Z"/>
  </g>
  <path class="st4" d="M294.96,166.96H83.48c-9.22,0-16.7-7.47-16.7-16.7s7.48-16.7,16.7-16.7h211.48c9.22,0,16.7,7.47,16.7,16.7s-7.48,16.7-16.69,16.7Z"/>
  <path class="st5" d="M294.96,133.57h-105.74v33.39h105.74c9.22,0,16.7-7.47,16.7-16.7s-7.48-16.69-16.69-16.69Z"/>
  <path class="st4" d="M294.96,300.52H83.48c-9.22,0-16.7-7.47-16.7-16.7s7.48-16.7,16.7-16.7h211.48c9.22,0,16.7,7.47,16.7,16.7s-7.48,16.7-16.69,16.7Z"/>
  <path class="st5" d="M294.96,267.13h-105.74v33.39h105.74c9.22,0,16.7-7.47,16.7-16.7s-7.48-16.7-16.69-16.7Z"/>
  <path class="st4" d="M294.96,434.09H83.48c-9.22,0-16.7-7.47-16.7-16.7s7.48-16.7,16.7-16.7h211.48c9.22,0,16.7,7.47,16.7,16.7s-7.48,16.7-16.69,16.7Z"/>
  <path class="st5" d="M294.96,400.7h-105.74v33.39h105.74c9.22,0,16.7-7.47,16.7-16.7s-7.48-16.69-16.69-16.69Z"/>
  <path class="st2" d="M411.83,411.83v50.09c0,13.39,5.22,25.96,14.67,35.41,9.46,9.46,22.03,14.67,35.41,14.67s25.96-5.21,35.41-14.67,14.67-22.03,14.67-35.42v-50.09h-100.17Z"/>
  <path class="st0" d="M461.91,512c13.38,0,25.96-5.21,35.41-14.67s14.67-22.03,14.67-35.42v-50.09h-50.09v100.17Z"/>
  <path class="st9" d="M512,100.17v-16.7c0-2.59-.61-5.15-1.76-7.47l-33.39-66.78c-2.83-5.66-8.61-9.23-14.93-9.23s-12.11,3.57-14.93,9.23l-33.39,66.78c-1.15,2.32-1.76,4.88-1.76,7.47v16.7s100.17,0,100.17,0Z"/>
  <path class="st7" d="M512,100.17v-16.7c0-2.59-.61-5.15-1.76-7.47l-33.39-66.78c-2.83-5.66-8.61-9.23-14.93-9.23v100.17h50.09Z"/>
</svg>